<?xml version="1.0" encoding="utf-8"?>
<!-- Generator: Adobe Illustrator 23.0.1, SVG Export Plug-In . SVG Version: 6.00 Build 0)  -->
<svg version="1.1" id="Vrstva_1" xmlns="http://www.w3.org/2000/svg" xmlns:xlink="http://www.w3.org/1999/xlink" x="0px" y="0px"
	 viewBox="0 0 119.1 119.1" style="enable-background:new 0 0 119.1 119.1;" xml:space="preserve">
<style type="text/css">
	.st0{fill:#FFFFFF;}
	.st1{fill:none;stroke:#FFFFFF;stroke-width:2.5;stroke-miterlimit:10;}
</style>
<g>
	<path class="st0" d="M8.4,61.4l0-2.6c0-0.9,0.3-1.5,0.7-2s1.2-0.6,2.1-0.6l1.1,0c0.9,0,1.6,0.2,2.1,0.7c0.5,0.4,0.7,1.1,0.7,2
		l0,0.8l4.6,0.1l0,1.8L8.4,61.4z M13.5,58.8c0-0.3-0.1-0.5-0.2-0.7C13.1,58,12.9,58,12.5,58l-1.3,0c-0.4,0-0.7,0.1-0.8,0.2
		s-0.2,0.4-0.3,0.6l0,0.8l3.4,0.1L13.5,58.8z"/>
	<path class="st0" d="M8.9,52.9l0.3-1.7l9.5,1.6l0.5-2.9l1.6,0.3l-0.8,4.6L8.9,52.9z"/>
	<path class="st0" d="M10.9,43.9l0.8-2.3l11.2,1.9l-0.6,1.7l-2.2-0.4l0,0l-0.6,1.9l2,1l-0.5,1.5L10.9,43.9z M18.6,44.5l-5.5-1l0,0
		l5,2.5L18.6,44.5z"/>
	<path class="st0" d="M13.2,37.8l0.8-1.6l8.2,3l0,0l-7.2-5.1l0.8-1.4l9.1,6.7l-1.1,2.1L13.2,37.8z"/>
	<path class="st0" d="M17.6,30.1l2.9-3.8l1.3,1l-1.8,2.4l2.4,1.8l1.4-1.9l1.3,1l-1.4,1.9l2.8,2.1l1.8-2.4l1.3,1l-2.9,3.8L17.6,30.1z
		"/>
	<path class="st0" d="M30.5,30.9c-0.7,0-1.3-0.4-1.9-1l-4.2-4.3c-0.6-0.6-0.9-1.3-0.9-1.9c0-0.7,0.3-1.3,0.9-1.9
		c0.6-0.6,1.2-0.9,1.9-0.8c0.7,0,1.3,0.4,1.9,1l0.8,0.8L27.7,24l-0.9-0.9c-0.5-0.5-0.9-0.5-1.4-0.1c-0.4,0.4-0.4,0.9,0.1,1.4
		l4.4,4.5c0.5,0.5,0.9,0.5,1.3,0.1c0.4-0.4,0.4-0.9-0.1-1.3L30,26.4l1.2-1.2l1.1,1.1c0.6,0.6,0.9,1.3,0.9,1.9c0,0.7-0.3,1.3-0.9,1.9
		C31.8,30.7,31.1,31,30.5,30.9z"/>
	<path class="st0" d="M28.9,18l1.4-1l2.7,3.9l-0.9-5.2l1.4-1l0.6,4.6l5.8,4.6l-1.5,1.1l-4.1-3.2l0.2,1.6l2,2.9l-1.4,1L28.9,18z"/>
	<path class="st0" d="M37.8,9.6l1.7-0.8l-0.8,2.4l-1.2,0.6L37.8,9.6z M37.7,12.5l2.2-1l6.4,9.3l-1.6,0.8l-1.2-1.9l0,0l-1.8,0.9
		l0.6,2.1l-1.5,0.7L37.7,12.5z M42.6,18.5l-3.1-4.7l0,0l1.7,5.3L42.6,18.5z"/>
	<path class="st0" d="M48.6,5.8l1.3-0.3l1,0.7l0.6-1L52.8,5l-0.9,2.1l-1.6,0.3L48.6,5.8z M51.3,18.8c-0.5-0.4-0.9-1-1-1.9l-0.1-0.6
		l1.6-0.3l0.1,0.8c0.1,0.7,0.5,1,1.1,0.9c0.3-0.1,0.5-0.2,0.6-0.4c0.1-0.2,0.1-0.5,0.1-0.9c-0.1-0.5-0.3-0.8-0.6-1.2
		c-0.3-0.3-0.7-0.7-1.4-1c-0.8-0.5-1.4-1-1.8-1.4s-0.6-1-0.8-1.6c-0.2-0.9-0.1-1.6,0.3-2.1c0.3-0.6,0.9-0.9,1.8-1.1
		c0.8-0.2,1.5,0,2,0.3c0.5,0.4,0.9,1,1,1.9l0.1,0.5l-1.6,0.3l-0.1-0.6c-0.1-0.4-0.2-0.6-0.4-0.8s-0.4-0.2-0.7-0.1
		c-0.6,0.1-0.8,0.5-0.7,1.2c0.1,0.4,0.3,0.7,0.5,1.1c0.3,0.3,0.8,0.6,1.4,1c0.8,0.5,1.5,1,1.8,1.4c0.4,0.5,0.6,1,0.8,1.7
		c0.2,0.9,0.1,1.6-0.3,2.2c-0.4,0.6-1,0.9-1.8,1.1C52.5,19.3,51.8,19.2,51.3,18.8z"/>
	<path class="st0" d="M57.1,7.1L58.8,7l0.1,4.7L61.1,7l1.8-0.1l-2,4.2l2.3,7l-1.8,0.1l-1.6-4.9l-0.7,1.4l0.1,3.6l-1.8,0.1L57.1,7.1z
		"/>
	<path class="st0" d="M65,17.7c-0.4-0.5-0.5-1.3-0.4-2.2l0.8-5.8c0.1-0.9,0.4-1.5,1-2s1.2-0.6,2.1-0.5c0.9,0.1,1.5,0.4,1.9,1
		s0.5,1.3,0.4,2.2l-0.8,5.8c-0.1,0.9-0.4,1.5-1,2c-0.5,0.4-1.2,0.6-2.1,0.5C66,18.6,65.4,18.3,65,17.7z M68.1,16.1l0.8-6.1
		c0.1-0.7-0.2-1.1-0.8-1.2c-0.6-0.1-1,0.2-1,1l-0.8,6.1c-0.1,0.7,0.2,1.1,0.8,1.2S68,16.9,68.1,16.1z"/>
	<path class="st0" d="M74.4,8.6l1.7,0.5l-2.7,9.2l2.8,0.8l-0.5,1.5l-4.5-1.3L74.4,8.6z"/>
	<path class="st0" d="M83.1,11.7l2.1,1l-3.2,10.9l-1.6-0.8l0.7-2.1l0,0l-1.8-0.9l-1.2,1.8L76.6,21L83.1,11.7z M81.6,19.2l1.7-5.3
		l0,0l-3.1,4.7L81.6,19.2z"/>
	<path class="st0" d="M93.4,17.8l1.3,1.1l-3,3.6l4.8-2.2l1.3,1.1l-4.3,1.8l-3,6.8l-1.4-1.2l2.1-4.8l-1.5,0.6l-2.3,2.7l-1.3-1.1
		L93.4,17.8z"/>
	<path class="st0" d="M92.2,30.9c0.1-0.7,0.5-1.3,1.1-1.9l4.5-3.8c0.7-0.6,1.4-0.9,2-0.8s1.3,0.4,1.8,1c0.6,0.7,0.8,1.3,0.7,2
		c-0.1,0.7-0.5,1.3-1.1,1.9l-4.5,3.8c-0.7,0.6-1.4,0.9-2,0.8s-1.3-0.4-1.8-1S92.1,31.6,92.2,30.9z M95.5,31.9l4.6-4
		c0.6-0.5,0.6-0.9,0.2-1.4c-0.4-0.5-0.9-0.5-1.4,0l-4.6,4c-0.6,0.5-0.6,0.9-0.2,1.4C94.5,32.3,95,32.3,95.5,31.9z"/>
	<path class="st0" d="M105.5,30.5l1.2,2.2l-6.4,4.9l0,0l7.5-3l1.2,2.2l-9.7,5.5L98.5,41l7.4-4.2l0,0l-8,3.1l-0.7-1.3l6.7-5.3l0,0
		l-7.4,4.2l-0.8-1.3L105.5,30.5z"/>
	<path class="st0" d="M110.5,40.3l1.6,4.5l-1.5,0.5l-1-2.9l-2.8,1l0.8,2.3l-1.5,0.5l-0.8-2.3l-3.2,1.1l1,2.9l-1.5,0.5L99.9,44
		L110.5,40.3z"/>
	<path class="st0" d="M111.6,49.7l-0.3-1.8l1.6-0.3l1,5.4l-1.6,0.3l-0.3-1.8l-9.4,1.7l-0.3-1.7L111.6,49.7z"/>
	<path class="st0" d="M114.1,56.7l0.1,2.4l-11.1,2.2l-0.1-1.8l2.2-0.4l0,0l-0.1-2l-2.2-0.2l-0.1-1.6L114.1,56.7z M106.7,58.9l5.5-1
		l0,0l-5.6-0.6L106.7,58.9z"/>
</g>
<path class="st0" d="M49.1,52.8c-0.4-1.6-0.6-5.8-0.6-6.3c0-0.5,0-1-0.1-1.5c0,0,0,0,0,0c-0.3-2.3-1.4-4.4-2.9-6.1
	c0.6-0.2,1.5-0.3,2.2-0.3c0.5,0,1.1,0.1,1.6,0.2c3.2,0.7,5.7,3,5.7,6.4c0,1,0,1.8,0,1.8s0.8-0.8,2.3-1.8c1.9-1.4,4.2-2,6.7-2
	c4.9,0,9.1,3,10.8,7.3c-2-1.5-4.4-2.5-7.1-2.5c-1.1,0-2.2,0.2-3.3,0.5c0,0,0,0,0,0c0,0-2.2,0.6-3.5,1.7c-1.4,1.3-2.4,3.1-2.3,5.2
	c0.1,1.9,0.4,3.3,1.6,5.1c1.6,2.3,2.9,4,5.1,5.8c2.3,1.8,3.8,3,6.4,4.1c2.5,1.1,5.4,1.2,8.2,1.2c-0.8-0.8-1.6-1.7-2.3-2.6
	c-0.6-0.7-1.1-1.4-1.6-2.2c-2.8-4.1-4.5-9-5-14.2c0.4,0,0.7-0.1,1.1-0.1c3.2,0,6.1,1.7,7.7,4.2c0-0.1,0-0.2,0-0.4c0-6-3.2-11.2-8-14
	c-1.8-1-4.4-1.7-6.6-2c-2.8-5-7.4-8.5-13.5-8.5c-0.3,0-0.7,0-1,0c-6,0.4-11.2,4-13.6,9.2c0.9-0.7,1.9-1,3.1-1c2.8,0,5.1,2.3,5.1,5.1
	v0c0,0.3,0,0.5-0.1,0.8c0,0.6-0.1,1.2-0.1,1.7c0,3.9,0.9,7.7,2.5,11c0.9,2,2.1,3.8,3.5,5.5c3.3,3.9,7.8,6.9,12.9,8.2
	c1.4,0.4,2.8,0.6,4.2,0.7C58.8,70.4,51.4,62.6,49.1,52.8z"/>
<g>
	<path class="st1" d="M14.8,70c4.8,21.2,23.8,37.1,46.5,37.1c22.7,0,41.7-15.9,46.5-37.1"/>
	<path class="st1" d="M20.9,84.2c1.2,0.9,2.5,1.6,4.7,1.6c6,0,6-5.2,11.9-5.2c5.9,0,5.9,5.2,11.9,5.2c6,0,6-5.2,11.9-5.2
		c5.9,0,5.9,5.2,11.9,5.2c6,0,6-5.2,11.9-5.2c6,0,6,5.2,11.9,5.2c2.3,0,3.7-0.7,4.9-1.7"/>
	<path class="st1" d="M30.9,94.8c1.7-1.5,3.2-3.2,6.6-3.2c5.9,0,5.9,5.2,11.9,5.2c6,0,6-5.2,11.9-5.2c5.9,0,5.9,5.2,11.9,5.2
		c6,0,6-5.2,11.9-5.2c3.4,0,4.9,1.7,6.6,3.2"/>
</g>
</svg>
