<?xml version="1.0" encoding="utf-8"?>
<!-- Generator: Adobe Illustrator 23.0.1, SVG Export Plug-In . SVG Version: 6.00 Build 0)  -->
<svg version="1.1" id="Vrstva_1" xmlns="http://www.w3.org/2000/svg" xmlns:xlink="http://www.w3.org/1999/xlink" x="0px" y="0px"
	 viewBox="0 0 184.3 69.1" style="enable-background:new 0 0 184.3 69.1;" xml:space="preserve">
<style type="text/css">
	.st0{fill:#2172DD;}
	.st1{fill:none;stroke:#2172DD;stroke-width:2;stroke-miterlimit:10;}
	.st2{fill-rule:evenodd;clip-rule:evenodd;fill:#2172DD;}
	.st3{opacity:0.55;}
	.st4{fill:#FFFFFF;}
	.st5{fill:none;stroke:#371A45;stroke-width:0;stroke-miterlimit:10;}
</style>
<g>
	<path class="st0" d="M71.4,3.5h3.3c1.1,0,2,0.3,2.5,0.9c0.6,0.6,0.8,1.5,0.8,2.7v1.4c0,1.2-0.3,2.1-0.8,2.7
		c-0.6,0.6-1.4,0.9-2.5,0.9h-1.1v5.9h-2.3V3.5z M74.7,10c0.4,0,0.6-0.1,0.8-0.3c0.2-0.2,0.3-0.6,0.3-1V6.9c0-0.5-0.1-0.8-0.3-1
		c-0.2-0.2-0.5-0.3-0.8-0.3h-1.1V10H74.7z"/>
	<path class="st0" d="M79.9,3.5h2.3v12.3h3.7v2.1h-6V3.5z"/>
	<path class="st0" d="M89.3,3.5h3.1l2.3,14.4h-2.3L92,15.1v0h-2.6L89,17.9h-2.1L89.3,3.5z M91.7,13.1l-1-7.1h0l-1,7.1H91.7z"/>
	<path class="st0" d="M95.1,3.5h2.3l1.5,11.2h0l1.5-11.2h2.1l-2.2,14.4h-3L95.1,3.5z"/>
	<path class="st0" d="M104.1,3.5h6.2v2.1h-3.9v3.8h3.1v2.1h-3.1v4.4h3.9v2.1h-6.2V3.5z"/>
	<path class="st0" d="M112.8,17.2c-0.6-0.6-0.9-1.5-0.9-2.6V6.9c0-1.1,0.3-2,0.9-2.6c0.6-0.6,1.4-0.9,2.5-0.9c1.1,0,1.9,0.3,2.5,0.9
		c0.6,0.6,0.9,1.5,0.9,2.6v1.5h-2.1V6.7c0-0.9-0.4-1.3-1.1-1.3c-0.8,0-1.1,0.4-1.1,1.3v8c0,0.9,0.4,1.3,1.1,1.3
		c0.8,0,1.1-0.4,1.1-1.3v-2.2h2.1v2c0,1.1-0.3,2-0.9,2.6c-0.6,0.6-1.4,0.9-2.5,0.9C114.2,18.1,113.4,17.8,112.8,17.2z"/>
	<path class="st0" d="M120.5,3.5h2.3v6.1l2.9-6.1h2.3l-2.7,5.3l2.7,9.1h-2.4l-1.9-6.4l-0.9,1.8v4.6h-2.3V3.5z"/>
	<path class="st0" d="M131.2,3.5h3.1l2.3,14.4h-2.3l-0.4-2.9v0h-2.6l-0.4,2.8h-2.1L131.2,3.5z M133,0.2h2.5l-2.2,2.4h-1.7L133,0.2z
		 M133.7,13.1l-1-7.1h0l-1,7.1H133.7z"/>
	<path class="st0" d="M142.5,17.2c-0.6-0.6-0.8-1.5-0.8-2.7v-0.8h2.1v1c0,0.9,0.4,1.4,1.2,1.4c0.4,0,0.7-0.1,0.9-0.3
		c0.2-0.2,0.3-0.6,0.3-1.1c0-0.6-0.1-1.1-0.4-1.6c-0.3-0.5-0.8-1-1.5-1.7c-0.9-0.8-1.6-1.6-2-2.2c-0.4-0.7-0.6-1.4-0.6-2.3
		c0-1.1,0.3-2,0.9-2.6c0.6-0.6,1.4-0.9,2.5-0.9c1.1,0,1.9,0.3,2.5,0.9c0.6,0.6,0.8,1.5,0.8,2.7v0.6h-2.1V6.8c0-0.5-0.1-0.9-0.3-1.1
		c-0.2-0.2-0.5-0.3-0.8-0.3c-0.8,0-1.1,0.5-1.1,1.4c0,0.5,0.1,1,0.4,1.5c0.3,0.5,0.8,1,1.5,1.6c0.9,0.8,1.6,1.6,2,2.2
		c0.4,0.7,0.5,1.5,0.5,2.4c0,1.2-0.3,2.1-0.9,2.7c-0.6,0.6-1.4,0.9-2.5,0.9C143.9,18.1,143.1,17.8,142.5,17.2z M142.3,0.2h1.7l1,1.1
		l1-1.1h1.7l-1.7,2.4H144L142.3,0.2z"/>
	<path class="st0" d="M150.2,3.5h2.3v6.1l2.9-6.1h2.3l-2.7,5.3l2.7,9.1h-2.4l-1.9-6.4l-0.9,1.8v4.6h-2.3V3.5z"/>
	<path class="st0" d="M159.7,17.2c-0.6-0.6-0.9-1.5-0.9-2.7V6.9c0-1.2,0.3-2,0.9-2.7c0.6-0.6,1.4-0.9,2.6-0.9c1.1,0,2,0.3,2.6,0.9
		c0.6,0.6,0.9,1.5,0.9,2.7v7.6c0,1.2-0.3,2-0.9,2.7c-0.6,0.6-1.4,0.9-2.6,0.9C161.1,18.1,160.3,17.8,159.7,17.2z M163.4,14.7V6.8
		c0-0.9-0.4-1.4-1.2-1.4S161,5.8,161,6.8v7.9c0,0.9,0.4,1.4,1.2,1.4S163.4,15.6,163.4,14.7z"/>
	<path class="st0" d="M167.7,3.5h2.3v12.3h3.7v2.1h-6V3.5z"/>
	<path class="st0" d="M177.1,3.5h3.1l2.3,14.4h-2.3l-0.4-2.9v0h-2.6l-0.4,2.8h-2.1L177.1,3.5z M179.6,13.1l-1-7.1h0l-1,7.1H179.6z"
		/>
</g>
<g>
	<path class="st0" d="M73.5,38.7h4.7v12.6l6-12.6h4.7l-5.6,11l5.7,19h-4.9l-4-13.4l-1.9,3.8v9.5h-4.7V38.7z"/>
	<path class="st0" d="M93.1,67.1c-1.2-1.3-1.8-3.2-1.8-5.6V45.8c0-2.4,0.6-4.3,1.8-5.6c1.2-1.3,3-2,5.3-2c2.3,0,4.1,0.7,5.3,2
		c1.2,1.3,1.8,3.2,1.8,5.6v15.8c0,2.4-0.6,4.3-1.8,5.6c-1.2,1.3-3,2-5.3,2C96.1,69.1,94.3,68.4,93.1,67.1z M100.9,61.8V45.5
		c0-2-0.8-3-2.4-3c-1.6,0-2.4,1-2.4,3v16.4c0,2,0.8,3,2.4,3C100,64.8,100.9,63.8,100.9,61.8z"/>
	<path class="st0" d="M109.8,38.7h6.7l3,21.5h0.1l3-21.5h6.7v30h-4.5V45.9h-0.1l-3.4,22.7h-3.9L114,45.9h-0.1v22.7h-4.1V38.7z"/>
	<path class="st0" d="M133.9,38.7h12.8v4.3h-8.1v7.9h6.5v4.3h-6.5v9.2h8.1v4.3h-12.8V38.7z"/>
	<path class="st0" d="M154.2,42.9h-4.9v-4.3h14.6v4.3h-4.9v25.7h-4.7V42.9z"/>
	<path class="st0" d="M168.9,38.7h6.4l4.9,30h-4.7l-0.9-6v0.1h-5.4l-0.9,5.9H164L168.9,38.7z M174,58.7l-2.1-14.8h-0.1l-2.1,14.8
		H174z"/>
</g>
<g>
	<path class="st1" d="M184.5,30.5c-5.1,0-5.1-4.4-10.3-4.4s-5.1,4.4-10.3,4.4c-5.1,0-5.1-4.4-10.3-4.4c-5.1,0-5.1,4.4-10.3,4.4
		c-5.1,0-5.1-4.4-10.3-4.4c-5.1,0-5.1,4.4-10.3,4.4c-5.1,0-5.1-4.4-10.3-4.4s-5.1,4.4-10.3,4.4s-5.1-4.4-10.3-4.4
		c-5.1,0-5.1,4.4-10.3,4.4s-5.1-4.4-10.3-4.4"/>
</g>
<g>
	<g>
		<path class="st2" d="M36.8,64.5c-2.4,3.6-1.4,4.5,3,2.5c3.1,1.8,4.4,1.8,4.1-0.1c5.6,0.7,3.7-2.1-4.2-3.8
			C38.8,63.7,37.8,64.1,36.8,64.5z"/>
	</g>
	<g>
		<path class="st2" d="M22.1,64.6c2.4,3.6,1.4,4.5-3,2.5c-3.1,1.8-4.4,1.8-4.1-0.1c-5.6,0.7-3.7-2.1,4.2-3.8
			C20.2,63.9,21.2,64.3,22.1,64.6z"/>
	</g>
	<g>
		<g>
			<path class="st0" d="M58.4,26.5c0,0,0-0.1,0-0.1c-0.1-0.4-0.4-0.8-0.7-1.1c-1.6-1.3-5.3,0.4-11.4,2.1c0,0,0,0,0,0
				c-0.2-10-2-17.3-7.8-20.6c0,0,0,0,0,0l0,0c0,0,0,0,0,0c-2.3-1.4-5.3-2.1-9.1-2c-13.1-0.1-16.5,8.6-16.8,22.6
				c-6.1-1.7-9.8-3.4-11.4-2.1c-2.5,1.9,0.2,7.5,8.7,13.6l0.2-1l0,0c-3,12.1-0.5,20.2,6.5,24.5c1.4,0.9,3.1,1.6,4.9,2.2
				c5.1,1.6,10.7,1.6,15.8,0c10.7-3.4,15-12.3,11.2-27.2l0,0l0.4,1.5c6.3-4.5,9.4-8.7,9.6-11.4c0,0,0,0,0,0
				C58.5,27.2,58.5,26.8,58.4,26.5z M46.2,27.5L46.2,27.5L46.2,27.5L46.2,27.5z"/>
		</g>
		<g class="st3">
			<g>
				<g>
					<path class="st4" d="M46.2,27.5L46.2,27.5L46.2,27.5L46.2,27.5z"/>
				</g>
			</g>
			<g>
				<g>
					<path class="st5" d="M46.2,27.5L46.2,27.5L46.2,27.5L46.2,27.5z"/>
				</g>
			</g>
		</g>
		<g>
			<g>
				<path class="st4" d="M45.5,56.5c-9.1,10.5-27.2,6.9-32,0c-4.6-6.7-1.2-13,0.4-15.3c0.9-1.2,1.6-2.6,2.2-4
					c1.5-3.7,1.1-6.2,0.6-14c-0.5-4.7,2.2-8.9,5.5-9.8c2.2-0.6,4.7,0.5,6.6,4.2c0.3,0.7,1.3,0.7,1.6,0c2.1-4,4.7-4.9,7-4
					c3.1,1.2,5.5,5.2,5,9.7c-0.5,7.8-0.9,10.3,0.6,14c0.6,1.4,1.3,2.7,2.2,4C46.7,43.6,50.1,49.8,45.5,56.5z"/>
			</g>
		</g>
		<g>
			<g>
				<g>
					
						<ellipse transform="matrix(7.754038e-02 -0.997 0.997 7.754038e-02 -0.5797 42.5497)" class="st0" cx="22.7" cy="21.6" rx="3.7" ry="2.7"/>
				</g>
			</g>
		</g>
		<g>
			<g>
				<g>
					
						<ellipse transform="matrix(0.997 -7.754038e-02 7.754038e-02 0.997 -1.5648 2.8753)" class="st0" cx="36.2" cy="21.6" rx="2.7" ry="3.7"/>
				</g>
			</g>
		</g>
		<g>
			<g>
				<g>
					<path class="st0" d="M31.9,25.9c0,1-0.2,1.8-0.6,2.3c-0.9,1.3-2.5,1.3-3.5,0c-0.4-0.5-0.7-1.3-0.7-2.3"/>
				</g>
			</g>
			<g>
				<g>
					<path class="st0" d="M32,25.7l-2.3,0.4c0,0-0.1,0-0.1,0c-0.1,0-0.2,0-0.4,0L27,25.7c-0.3-0.1-0.5-0.4-0.4-0.7c0.9-2,2-3,3-2.9
						c1,0,1.9,1,2.8,2.9C32.5,25.3,32.3,25.7,32,25.7z"/>
				</g>
			</g>
		</g>
		<g>
			<g>
				<path class="st0" d="M28.2,6c-3.1-5.8,2.5-8.6,3-2.3c1.9-3.3,6-0.6,1.1,2.3"/>
			</g>
		</g>
	</g>
</g>
</svg>
