<?xml version="1.0" encoding="utf-8"?>
<!-- Generator: Adobe Illustrator 23.0.1, SVG Export Plug-In . SVG Version: 6.00 Build 0)  -->
<svg version="1.1" id="Vrstva_1" xmlns="http://www.w3.org/2000/svg" xmlns:xlink="http://www.w3.org/1999/xlink" x="0px" y="0px"
	 viewBox="0 0 141.7 85.7" style="enable-background:new 0 0 141.7 85.7;" xml:space="preserve">
<style type="text/css">
	.st0{fill:none;stroke:#2172DD;stroke-width:2.5;stroke-linecap:round;stroke-miterlimit:10;}
	.st1{fill-rule:evenodd;clip-rule:evenodd;fill:#2172DD;}
	.st2{fill:#2172DD;}
	.st3{opacity:0.55;}
	.st4{fill:#FFFFFF;}
	.st5{fill:none;stroke:#371A45;stroke-width:0;stroke-miterlimit:10;}
</style>
<g>
	<path class="st0" d="M138.8,51.8c-6.8,0-6.8-6.1-13.6-6.1c-6.8,0-6.8,6.1-13.6,6.1c-6.8,0-6.8-6.1-13.6-6.1
		c-6.8,0-6.8,6.1-13.6,6.1c-6.8,0-6.8-6.1-13.6-6.1c-6.8,0-6.8,6.1-13.6,6.1c-6.8,0-6.8-6.1-13.6-6.1c-6.8,0-6.8,6.1-13.6,6.1
		c-6.8,0-6.8-6.1-13.6-6.1c-6.8,0-6.8,6.1-13.6,6.1"/>
	<path class="st0" d="M16.7,60.3c6.8,0,6.8,6.1,13.7,6.1c6.8,0,6.8-6.1,13.7-6.1c6.8,0,6.8,6.1,13.7,6.1c6.8,0,6.8-6.1,13.7-6.1
		c6.8,0,6.8,6.1,13.7,6.1c6.8,0,6.8-6.1,13.7-6.1c6.8,0,6.8,6.1,13.7,6.1s6.8-6.1,13.7-6.1"/>
	<g>
		<g>
			<path class="st1" d="M80.2,80.5c-3.1,4.5-1.8,5.6,3.7,3.2c3.8,2.3,5.5,2.2,5.1-0.1c7.1,0.9,4.7-2.6-5.3-4.7
				C82.7,79.5,81.5,80.1,80.2,80.5z"/>
		</g>
		<g>
			<path class="st1" d="M61.9,80.7c3.1,4.5,1.8,5.6-3.7,3.2c-3.8,2.3-5.5,2.2-5.1-0.1c-7.1,0.9-4.7-2.6,5.3-4.7
				C59.4,79.8,60.6,80.3,61.9,80.7z"/>
		</g>
		<g>
			<g>
				<path class="st2" d="M107.2,33c0-0.1,0-0.1-0.1-0.2c-0.2-0.5-0.5-1-0.9-1.3c-2-1.6-6.6,0.5-14.3,2.6c0,0,0,0,0,0
					c-0.3-12.5-2.5-21.6-9.7-25.8c0,0,0,0,0,0l0,0c0,0,0,0,0,0c-2.9-1.7-6.6-2.6-11.3-2.5C54.6,5.7,50.2,16.7,49.9,34.2
					C42.2,32,37.6,30,35.6,31.5c-3.1,2.4,0.3,9.4,10.9,17l0.3-1.2l0,0c-3.7,15.1-0.6,25.2,8.1,30.6c1.8,1.1,3.8,2,6.1,2.8
					c6.4,2.1,13.4,2.1,19.8,0c13.4-4.3,18.8-15.4,14-34l0,0l0.4,1.9c7.9-5.6,11.8-10.9,12-14.2c0,0,0,0,0,0
					C107.3,33.8,107.3,33.4,107.2,33z M92,34.3L92,34.3L92,34.3L92,34.3z"/>
			</g>
			<g class="st3">
				<g>
					<g>
						<path class="st4" d="M92,34.3L92,34.3L92,34.3L92,34.3z"/>
					</g>
				</g>
				<g>
					<g>
						<path class="st5" d="M92,34.3L92,34.3L92,34.3L92,34.3z"/>
					</g>
				</g>
			</g>
			<g>
				<g>
					<path class="st4" d="M91.1,70.6c-11.4,13.1-34.1,8.7-40,0c-5.7-8.4-1.5-16.2,0.5-19.1c1.1-1.6,2-3.2,2.7-5
						c1.8-4.6,1.3-7.7,0.7-17.4c-0.6-5.9,2.8-11.1,6.9-12.3c2.7-0.8,5.9,0.6,8.2,5.2c0.4,0.8,1.6,0.8,2,0c2.7-5,5.8-6.2,8.7-5.1
						c3.8,1.5,6.9,6.5,6.3,12.1c-0.6,9.7-1.1,12.8,0.7,17.4c0.7,1.8,1.6,3.4,2.7,5C92.6,54.4,96.8,62.2,91.1,70.6z"/>
				</g>
			</g>
			<g>
				<g>
					<g>
						
							<ellipse transform="matrix(7.754038e-02 -0.997 0.997 7.754038e-02 30.9338 87.1734)" class="st2" cx="62.6" cy="26.9" rx="4.6" ry="3.3"/>
					</g>
				</g>
			</g>
			<g>
				<g>
					<g>
						
							<ellipse transform="matrix(0.997 -7.754038e-02 7.754038e-02 0.997 -1.8441 6.2461)" class="st2" cx="79.5" cy="26.9" rx="3.3" ry="4.6"/>
					</g>
				</g>
			</g>
			<g>
				<g>
					<g>
						<path class="st2" d="M74,32.2c0,1.2-0.3,2.2-0.8,2.9c-1.1,1.6-3.2,1.6-4.3,0c-0.5-0.7-0.8-1.7-0.8-2.9H74z"/>
					</g>
				</g>
				<g>
					<g>
						<path class="st2" d="M74.2,32l-2.9,0.5c-0.1,0-0.1,0-0.2,0c-0.1,0-0.3,0-0.4,0l-2.8-0.5c-0.4-0.1-0.6-0.5-0.5-0.9
							c1.2-2.5,2.5-3.7,3.7-3.6c1.2,0.1,2.4,1.3,3.5,3.6C74.8,31.6,74.6,32,74.2,32z"/>
					</g>
				</g>
			</g>
			<g>
				<g>
					<path class="st2" d="M69.5,7.4c-3.9-7.3,3.1-10.7,3.7-2.9c2.3-4.1,7.5-0.8,1.3,2.9H69.5z"/>
				</g>
			</g>
		</g>
	</g>
</g>
</svg>
