<?xml version="1.0" encoding="utf-8"?>
<!-- Generator: Adobe Illustrator 23.0.1, SVG Export Plug-In . SVG Version: 6.00 Build 0)  -->
<svg version="1.1" xmlns="http://www.w3.org/2000/svg" xmlns:xlink="http://www.w3.org/1999/xlink" x="0px" y="0px"
	 viewBox="0 0 119.06 119.06" style="enable-background:new 0 0 119.06 119.06;" xml:space="preserve">
<style type="text/css">
	.st0{fill:none;stroke:#2172DD;stroke-width:2;stroke-miterlimit:10;}
	.st1{fill:#2172DD;}
</style>
<g id="Vrstva_1">
</g>
<g id="Vrstva_2">
	<g>
		<g>
			<path class="st0" d="M94.72,105.28c-3.97,0-3.97-3.81-7.94-3.81c-3.97,0-3.97,3.81-7.94,3.81c-3.97,0-3.97-3.81-7.94-3.81
				c-3.97,0-3.97,3.81-7.94,3.81c-3.97,0-3.97-3.81-7.95-3.81c-3.97,0-3.97,3.81-7.94,3.81c-3.97,0-3.97-3.81-7.95-3.81
				c-3.97,0-3.97,3.81-7.95,3.81"/>
		</g>
	</g>
	<g>
		<g>
			<path class="st0" d="M94.72,96.51c-3.97,0-3.97-3.81-7.94-3.81c-3.97,0-3.97,3.81-7.94,3.81c-3.97,0-3.97-3.81-7.94-3.81
				c-3.97,0-3.97,3.81-7.94,3.81c-3.97,0-3.97-3.81-7.95-3.81c-3.97,0-3.97,3.81-7.94,3.81c-3.97,0-3.97-3.81-7.95-3.81
				s-3.97,3.81-7.95,3.81"/>
		</g>
	</g>
	<g>
		<path class="st1" d="M4.3,49.12l0.83-2.45c0.28-0.83,0.71-1.37,1.29-1.63c0.58-0.26,1.3-0.25,2.16,0.04l1.04,0.35
			c0.86,0.29,1.43,0.72,1.74,1.28s0.31,1.26,0.04,2.08l-0.27,0.78l4.3,1.46l-0.56,1.66L4.3,49.12z M9.88,48.28
			c0.09-0.27,0.09-0.5-0.02-0.69c-0.11-0.19-0.34-0.34-0.7-0.46l-1.25-0.42c-0.36-0.12-0.64-0.14-0.84-0.06
			c-0.2,0.08-0.34,0.26-0.43,0.54l-0.27,0.78l3.25,1.1L9.88,48.28z"/>
		<path class="st1" d="M6.88,42.08l0.76-1.58l8.61,4.16l1.26-2.6l1.43,0.69l-2.02,4.17L6.88,42.08z"/>
		<path class="st1" d="M10.77,34.75l1.3-1.99l10.34,4.57l-0.96,1.47l-2.03-0.94l0.03,0.02l-1.09,1.67l1.65,1.46l-0.89,1.36
			L10.77,34.75z M18.07,37.23l-5.04-2.36L13,34.9l4.2,3.65L18.07,37.23z"/>
		<path class="st1" d="M13.84,30.21l1.14-1.35l7.36,4.7l0.02-0.02l-5.88-6.45l1.04-1.23l7.44,8.48l-1.5,1.78L13.84,30.21z"/>
		<path class="st1" d="M19.07,24.28l3.51-3.24l1.08,1.17l-2.22,2.05l2,2.17l1.77-1.63l1.08,1.17l-1.77,1.63l2.33,2.52l2.22-2.05
			l1.08,1.17l-3.51,3.25L19.07,24.28z"/>
		<path class="st1" d="M31.04,27.84c-0.64-0.13-1.21-0.55-1.71-1.26l-3.49-4.87c-0.51-0.71-0.72-1.39-0.64-2.03
			c0.08-0.64,0.46-1.21,1.14-1.7c0.68-0.49,1.34-0.67,1.98-0.53s1.21,0.55,1.71,1.26l0.69,0.96l-1.35,0.96l-0.75-1.05
			c-0.4-0.56-0.84-0.67-1.32-0.33s-0.51,0.79-0.11,1.35l3.62,5.07c0.4,0.55,0.83,0.66,1.31,0.32c0.48-0.34,0.52-0.79,0.12-1.34
			l-0.99-1.39l1.35-0.96l0.92,1.28c0.51,0.71,0.72,1.39,0.64,2.03c-0.08,0.64-0.46,1.21-1.14,1.7
			C32.34,27.79,31.68,27.97,31.04,27.84z"/>
		<path class="st1" d="M30.64,15.3l1.55-0.82l2.2,4.15l-0.23-5.2l1.55-0.82l0.07,4.6l5.18,5.25l-1.62,0.86l-3.64-3.7l0.04,1.58
			l1.66,3.14l-1.55,0.82L30.64,15.3z"/>
		<path class="st1" d="M39.47,8.36l1.8-0.66l-0.97,2.31l-1.24,0.45L39.47,8.36z M39.08,11.25l2.23-0.82l5.54,9.85l-1.65,0.6
			l-1.06-1.97l0.01,0.03l-1.87,0.68l0.45,2.16l-1.53,0.56L39.08,11.25z M43.44,17.6l-2.63-4.91l-0.03,0.01l1.17,5.44L43.44,17.6z"/>
		<path class="st1" d="M48.5,5.81l1.31-0.21l0.94,0.74l0.66-0.99l1.31-0.21l-1,2.02l-1.64,0.26L48.5,5.81z M50.75,18.79
			c-0.51-0.41-0.83-1.06-0.97-1.95l-0.1-0.63l1.64-0.26l0.12,0.75c0.11,0.71,0.47,1.02,1.07,0.93c0.29-0.05,0.5-0.17,0.63-0.37
			c0.13-0.2,0.16-0.49,0.09-0.88c-0.07-0.46-0.24-0.85-0.51-1.17s-0.72-0.68-1.37-1.08c-0.81-0.52-1.4-1.01-1.77-1.47
			c-0.36-0.46-0.6-1.02-0.7-1.66c-0.14-0.87-0.03-1.58,0.34-2.13c0.36-0.55,0.97-0.89,1.81-1.02c0.83-0.13,1.49,0.01,2,0.42
			c0.5,0.41,0.82,1.06,0.96,1.95l0.07,0.46l-1.64,0.26l-0.09-0.57c-0.06-0.38-0.18-0.64-0.35-0.79c-0.17-0.15-0.4-0.2-0.69-0.16
			c-0.58,0.09-0.81,0.49-0.7,1.19c0.06,0.4,0.23,0.75,0.5,1.07c0.27,0.31,0.73,0.67,1.37,1.07c0.82,0.51,1.41,1.01,1.77,1.48
			c0.35,0.47,0.59,1.05,0.7,1.75c0.14,0.9,0.03,1.63-0.34,2.18s-0.98,0.9-1.83,1.03C51.92,19.34,51.25,19.2,50.75,18.79z"/>
		<path class="st1" d="M55.99,7.39l1.75-0.05l0.13,4.7l2.1-4.76l1.75-0.05l-1.98,4.15l2.31,7l-1.83,0.05l-1.61-4.93l-0.66,1.44
			l0.09,3.55l-1.75,0.05L55.99,7.39z"/>
		<path class="st1" d="M63.2,17.93c-0.4-0.53-0.56-1.24-0.47-2.13l0.6-5.83c0.09-0.89,0.39-1.55,0.89-1.99
			c0.5-0.44,1.18-0.62,2.04-0.53c0.86,0.09,1.49,0.4,1.89,0.93s0.56,1.24,0.47,2.13l-0.6,5.83c-0.09,0.89-0.39,1.55-0.89,1.99
			c-0.5,0.44-1.18,0.62-2.04,0.53C64.23,18.78,63.6,18.47,63.2,17.93z M66.27,16.28l0.63-6.06C66.97,9.5,66.7,9.1,66.1,9.04
			c-0.6-0.06-0.94,0.27-1.02,1l-0.63,6.06c-0.08,0.73,0.19,1.13,0.79,1.19C65.85,17.34,66.19,17.01,66.27,16.28z"/>
		<path class="st1" d="M71.4,8.34l1.71,0.4l-2.17,9.31l2.81,0.65l-0.36,1.55l-4.52-1.05L71.4,8.34z"/>
		<path class="st1" d="M79.37,10.52l2.23,0.83l-2.18,11.09l-1.64-0.61l0.47-2.19l-0.01,0.03l-1.87-0.69l-1.06,1.94l-1.52-0.57
			L79.37,10.52z M78.57,18.17l1.19-5.44l-0.03-0.01l-2.64,4.9L78.57,18.17z"/>
		<path class="st1" d="M88.61,14.62l1.49,0.92l-2.48,3.99l4.38-2.82l1.49,0.92l-3.93,2.38l-1.92,7.12l-1.56-0.97l1.36-5.01L86.09,22
			l-1.88,3.02l-1.49-0.92L88.61,14.62z"/>
		<path class="st1" d="M88.81,27.38c-0.04-0.67,0.22-1.35,0.78-2.04l3.71-4.54c0.56-0.69,1.18-1.08,1.84-1.17
			c0.66-0.09,1.33,0.14,1.99,0.68c0.67,0.54,1.02,1.15,1.07,1.82c0.04,0.67-0.22,1.35-0.78,2.04l-3.71,4.54
			c-0.56,0.69-1.18,1.08-1.84,1.17c-0.66,0.09-1.33-0.14-1.99-0.68C89.21,28.65,88.85,28.04,88.81,27.38z M92.28,27.69l3.85-4.71
			c0.46-0.57,0.46-1.04-0.01-1.43c-0.47-0.38-0.94-0.29-1.4,0.28l-3.85,4.71c-0.46,0.57-0.46,1.04,0.01,1.43
			C91.35,28.34,91.82,28.25,92.28,27.69z"/>
		<path class="st1" d="M101.09,23.92l1.67,1.86l-5.19,6.17l0.02,0.02l6.68-4.51l1.67,1.86l-8.3,7.46l-1.11-1.23l6.28-5.65
			l-0.02-0.02l-7.13,4.7l-0.98-1.09l5.43-6.59l-0.02-0.02l-6.28,5.65l-1.02-1.14L101.09,23.92z"/>
		<path class="st1" d="M107.58,31.6l2.64,3.99l-1.33,0.88l-1.67-2.53l-2.46,1.63l1.33,2.01l-1.33,0.88l-1.33-2.01l-2.86,1.89
			l1.67,2.53l-1.33,0.88l-2.64-3.99L107.58,31.6z"/>
		<path class="st1" d="M110.56,39.58l-0.82-1.64l1.43-0.71l2.41,4.85l-1.43,0.71l-0.82-1.64l-8.56,4.25L102,43.83L110.56,39.58z"/>
		<path class="st1" d="M114.61,44.71l0.8,2.24l-9.88,5.48l-0.59-1.65l1.98-1.05l-0.03,0.01l-0.67-1.87l-2.16,0.44l-0.55-1.53
			L114.61,44.71z M108.24,49.03l4.92-2.6l-0.01-0.03l-5.45,1.14L108.24,49.03z"/>
	</g>
	<path class="st1" d="M47.27,59.58c-0.44-1.87-0.74-6.84-0.74-7.37c0-0.59-0.04-1.17-0.11-1.74c0,0,0,0,0,0
		c-0.34-2.7-1.7-5.14-3.37-7.12c0.76-0.23,1.79-0.35,2.63-0.35c0.64,0,1.27,0.07,1.86,0.21c3.73,0.85,6.72,3.54,6.72,7.53
		c0,1.15,0,2.13,0,2.13s0.99-0.99,2.7-2.13c2.23-1.6,4.92-2.34,7.88-2.34c5.74,0,10.65,3.55,12.66,8.57c-2.31-1.82-5.23-2.9-8.4-2.9
		c-1.34,0-2.63,0.19-3.85,0.55c0,0,0,0,0,0c0,0-2.61,0.66-4.06,1.98c-1.67,1.52-2.81,3.7-2.74,6.13c0.07,2.2,0.5,3.9,1.92,6.03
		c1.84,2.7,3.45,4.74,6,6.8c2.66,2.14,4.42,3.52,7.48,4.84c2.92,1.26,6.38,1.42,9.69,1.43c-0.98-0.96-1.9-1.98-2.76-3.05
		c-0.67-0.83-1.3-1.7-1.9-2.59C75.63,71.31,73.54,65.6,73,59.45c0.42-0.05,0.85-0.08,1.28-0.08c3.81,0,7.16,1.98,9.08,4.96
		c0-0.14,0-0.28,0-0.42c0-7-3.79-13.12-9.42-16.42c-2.1-1.23-5.23-1.96-7.75-2.31c-3.24-5.86-8.72-9.93-15.89-9.93
		c-0.4,0-0.79,0.01-1.19,0.04c-7.08,0.44-13.11,4.74-16,10.83c1.01-0.76,2.27-1.22,3.63-1.22c3.33,0,6.03,2.7,6.03,6.03v0.05
		c0,0.3-0.03,0.6-0.07,0.88c-0.05,0.67-0.07,1.36-0.07,2.04c0,4.63,1.05,9.01,2.92,12.92c1.11,2.33,2.51,4.49,4.16,6.44
		c3.91,4.62,9.19,8.05,15.22,9.65c1.61,0.43,3.28,0.72,4.99,0.88C58.68,80.35,49.98,71.12,47.27,59.58z"/>
</g>
</svg>
