<?xml version="1.0" encoding="utf-8"?>
<!-- Generator: Adobe Illustrator 23.0.1, SVG Export Plug-In . SVG Version: 6.00 Build 0)  -->
<svg version="1.1" id="Vrstva_1" xmlns="http://www.w3.org/2000/svg" xmlns:xlink="http://www.w3.org/1999/xlink" x="0px" y="0px"
	 viewBox="0 0 200 69.1" style="enable-background:new 0 0 112.9 69.1;" xml:space="preserve">
<style type="text/css">
	.st0{fill:#F8F8F8;}
	.st1{fill:none;stroke:#F8F8F8;stroke-width:2;stroke-miterlimit:10;}
</style>
<g>
	<path class="st0" d="M0,3.5h3.3c1.1,0,2,0.3,2.5,0.9C6.4,5,6.7,5.9,6.7,7.1v1.4c0,1.2-0.3,2.1-0.8,2.7c-0.6,0.6-1.4,0.9-2.5,0.9
		H2.3v5.9H0V3.5z M3.3,10C3.7,10,4,9.9,4.2,9.7c0.2-0.2,0.3-0.6,0.3-1V6.9c0-0.5-0.1-0.8-0.3-1C4,5.7,3.7,5.6,3.3,5.6H2.3V10H3.3z"
		/>
	<path class="st0" d="M8.5,3.5h2.3v12.3h3.7v2.1h-6V3.5z"/>
	<path class="st0" d="M17.9,3.5h3.1l2.3,14.4H21l-0.4-2.9v0H18l-0.4,2.8h-2.1L17.9,3.5z M20.3,13.1l-1-7.1h0l-1,7.1H20.3z"/>
	<path class="st0" d="M23.7,3.5H26l1.5,11.2h0L29,3.5h2.1l-2.2,14.4h-3L23.7,3.5z"/>
	<path class="st0" d="M32.7,3.5h6.2v2.1H35v3.8h3.1v2.1H35v4.4h3.9v2.1h-6.2V3.5z"/>
	<path class="st0" d="M41.4,17.2c-0.6-0.6-0.9-1.5-0.9-2.6V6.9c0-1.1,0.3-2,0.9-2.6c0.6-0.6,1.4-0.9,2.5-0.9c1.1,0,1.9,0.3,2.5,0.9
		c0.6,0.6,0.9,1.5,0.9,2.6v1.5h-2.1V6.7c0-0.9-0.4-1.3-1.1-1.3c-0.8,0-1.1,0.4-1.1,1.3v8c0,0.9,0.4,1.3,1.1,1.3
		c0.8,0,1.1-0.4,1.1-1.3v-2.2h2.1v2c0,1.1-0.3,2-0.9,2.6c-0.6,0.6-1.4,0.9-2.5,0.9C42.8,18.1,42,17.8,41.4,17.2z"/>
	<path class="st0" d="M49.1,3.5h2.3v6.1l2.9-6.1h2.3l-2.7,5.3l2.7,9.1h-2.4l-1.9-6.4l-0.9,1.8v4.6h-2.3V3.5z"/>
	<path class="st0" d="M59.9,3.5h3.1l2.3,14.4H63l-0.4-2.9v0H60l-0.4,2.8h-2.1L59.9,3.5z M61.6,0.2h2.5l-2.2,2.4h-1.7L61.6,0.2z
		 M62.3,13.1l-1-7.1h0l-1,7.1H62.3z"/>
	<path class="st0" d="M71.1,17.2c-0.6-0.6-0.8-1.5-0.8-2.7v-0.8h2.1v1c0,0.9,0.4,1.4,1.2,1.4c0.4,0,0.7-0.1,0.9-0.3
		c0.2-0.2,0.3-0.6,0.3-1.1c0-0.6-0.1-1.1-0.4-1.6c-0.3-0.5-0.8-1-1.5-1.7c-0.9-0.8-1.6-1.6-2-2.2c-0.4-0.7-0.6-1.4-0.6-2.3
		c0-1.1,0.3-2,0.9-2.6c0.6-0.6,1.4-0.9,2.5-0.9c1.1,0,1.9,0.3,2.5,0.9C76.7,4.9,77,5.8,77,6.9v0.6h-2.1V6.8c0-0.5-0.1-0.9-0.3-1.1
		c-0.2-0.2-0.5-0.3-0.8-0.3c-0.8,0-1.1,0.5-1.1,1.4c0,0.5,0.1,1,0.4,1.5c0.3,0.5,0.8,1,1.5,1.6c0.9,0.8,1.6,1.6,2,2.2
		c0.4,0.7,0.5,1.5,0.5,2.4c0,1.2-0.3,2.1-0.9,2.7c-0.6,0.6-1.4,0.9-2.5,0.9C72.5,18.1,71.7,17.8,71.1,17.2z M70.9,0.2h1.7l1,1.1
		l1-1.1h1.7l-1.7,2.4h-2.1L70.9,0.2z"/>
	<path class="st0" d="M78.8,3.5h2.3v6.1L84,3.5h2.3l-2.7,5.3l2.7,9.1h-2.4L82,11.5l-0.9,1.8v4.6h-2.3V3.5z"/>
	<path class="st0" d="M88.3,17.2c-0.6-0.6-0.9-1.5-0.9-2.7V6.9c0-1.2,0.3-2,0.9-2.7c0.6-0.6,1.4-0.9,2.6-0.9c1.1,0,2,0.3,2.6,0.9
		c0.6,0.6,0.9,1.5,0.9,2.7v7.6c0,1.2-0.3,2-0.9,2.7c-0.6,0.6-1.4,0.9-2.6,0.9C89.7,18.1,88.9,17.8,88.3,17.2z M92,14.7V6.8
		c0-0.9-0.4-1.4-1.2-1.4c-0.8,0-1.2,0.5-1.2,1.4v7.9c0,0.9,0.4,1.4,1.2,1.4C91.6,16.1,92,15.6,92,14.7z"/>
	<path class="st0" d="M96.3,3.5h2.3v12.3h3.7v2.1h-6V3.5z"/>
	<path class="st0" d="M105.7,3.5h3.1l2.3,14.4h-2.3l-0.4-2.9v0h-2.6l-0.4,2.8h-2.1L105.7,3.5z M108.2,13.1l-1-7.1h0l-1,7.1H108.2z"
		/>
</g>
<g>
	<path class="st0" d="M2.1,38.7h4.7v12.6l6-12.6h4.7l-5.6,11l5.7,19h-4.9l-4-13.4l-1.9,3.8v9.5H2.1V38.7z"/>
	<path class="st0" d="M21.7,67.1c-1.2-1.3-1.8-3.2-1.8-5.6V45.8c0-2.4,0.6-4.3,1.8-5.6c1.2-1.3,3-2,5.3-2c2.3,0,4.1,0.7,5.3,2
		c1.2,1.3,1.8,3.2,1.8,5.6v15.8c0,2.4-0.6,4.3-1.8,5.6c-1.2,1.3-3,2-5.3,2C24.7,69.1,22.9,68.4,21.7,67.1z M29.5,61.8V45.5
		c0-2-0.8-3-2.4-3c-1.6,0-2.4,1-2.4,3v16.4c0,2,0.8,3,2.4,3C28.7,64.8,29.5,63.8,29.5,61.8z"/>
	<path class="st0" d="M38.4,38.7h6.7l3,21.5h0.1l3-21.5h6.7v30h-4.5V45.9h-0.1L50,68.6H46l-3.4-22.7h-0.1v22.7h-4.1V38.7z"/>
	<path class="st0" d="M62.5,38.7h12.8v4.3h-8.1v7.9h6.5v4.3h-6.5v9.2h8.1v4.3H62.5V38.7z"/>
	<path class="st0" d="M82.8,42.9h-4.9v-4.3h14.6v4.3h-4.9v25.7h-4.7V42.9z"/>
	<path class="st0" d="M97.5,38.7h6.4l4.9,30H104l-0.9-6v0.1h-5.4L97,68.6h-4.4L97.5,38.7z M102.6,58.7l-2.1-14.8h-0.1l-2.1,14.8
		H102.6z"/>
</g>
<g>
	<path class="st1" d="M113.1,30.5c-5.1,0-5.1-4.4-10.3-4.4c-5.1,0-5.1,4.4-10.3,4.4s-5.1-4.4-10.3-4.4s-5.1,4.4-10.3,4.4
		c-5.1,0-5.1-4.4-10.3-4.4s-5.1,4.4-10.3,4.4s-5.1-4.4-10.3-4.4s-5.1,4.4-10.3,4.4s-5.1-4.4-10.3-4.4s-5.1,4.4-10.3,4.4
		S5.1,26.1,0,26.1"/>
</g>
</svg>
