<?xml version="1.0" encoding="utf-8"?>
<!-- Generator: Adobe Illustrator 23.0.1, SVG Export Plug-In . SVG Version: 6.00 Build 0)  -->
<svg version="1.1" id="Vrstva_1" xmlns="http://www.w3.org/2000/svg" xmlns:xlink="http://www.w3.org/1999/xlink" x="0px" y="0px"
	 viewBox="0 0 43.9 51.4" style="enable-background:new 0 0 43.9 51.4;" xml:space="preserve">
<style type="text/css">
	.st0{fill-rule:evenodd;clip-rule:evenodd;fill:#2172DD;}
	.st1{fill:#2172DD;}
	.st2{opacity:0.55;}
	.st3{fill:#FFFFFF;}
	.st4{fill:none;stroke:#371A45;stroke-width:0;stroke-miterlimit:10;}
</style>
<g>
	<g>
		<path class="st0" d="M27.6,48.5c-1.8,2.7-1.1,3.4,2.3,1.9c2.3,1.4,3.3,1.3,3.1-0.1c4.3,0.5,2.8-1.6-3.2-2.8
			C29,47.9,28.3,48.2,27.6,48.5z"/>
	</g>
	<g>
		<path class="st0" d="M16.5,48.6c1.8,2.7,1.1,3.4-2.3,1.9c-2.3,1.4-3.3,1.3-3.1-0.1c-4.3,0.5-2.8-1.6,3.2-2.8
			C15,48.1,15.8,48.4,16.5,48.6z"/>
	</g>
	<g>
		<g>
			<path class="st1" d="M43.8,19.9c0,0,0-0.1,0-0.1c-0.1-0.3-0.3-0.6-0.6-0.8c-1.2-0.9-4,0.3-8.6,1.6c0,0,0,0,0,0
				c-0.2-7.5-1.5-13-5.9-15.5c0,0,0,0,0,0l0,0c0,0,0,0,0,0c-1.8-1-4-1.5-6.8-1.5C12.1,3.5,9.5,10,9.3,20.6c-4.6-1.3-7.4-2.5-8.6-1.6
				c-1.9,1.4,0.2,5.7,6.6,10.2l0.2-0.7l0,0C5.2,37.6,7,43.7,12.3,47c1.1,0.7,2.3,1.2,3.7,1.7c3.9,1.2,8.1,1.2,11.9,0
				c8.1-2.6,11.3-9.3,8.5-20.5l0,0l0.3,1.1c4.7-3.4,7.1-6.6,7.2-8.6c0,0,0,0,0,0C43.9,20.4,43.9,20.1,43.8,19.9z M34.6,20.7
				L34.6,20.7L34.6,20.7L34.6,20.7z"/>
		</g>
		<g class="st2">
			<g>
				<g>
					<path class="st3" d="M34.6,20.6L34.6,20.6L34.6,20.6L34.6,20.6z"/>
				</g>
			</g>
			<g>
				<g>
					<path class="st4" d="M34.6,20.6L34.6,20.6L34.6,20.6L34.6,20.6z"/>
				</g>
			</g>
		</g>
		<g>
			<g>
				<path class="st3" d="M34.1,42.5c-6.9,7.9-20.5,5.2-24.1,0c-3.5-5.1-0.9-9.8,0.3-11.5c0.7-0.9,1.2-1.9,1.6-3
					c1.1-2.8,0.8-4.6,0.4-10.5C12,14,14,10.8,16.5,10.1c1.6-0.5,3.6,0.4,5,3.2c0.2,0.5,0.9,0.5,1.2,0c1.6-3,3.5-3.7,5.3-3.1
					c2.3,0.9,4.1,3.9,3.8,7.3c-0.4,5.9-0.7,7.7,0.4,10.5c0.4,1.1,1,2.1,1.6,3C35,32.8,37.5,37.5,34.1,42.5z"/>
			</g>
		</g>
		<g>
			<g>
				<g>
					
						<ellipse transform="matrix(7.754038e-02 -0.997 0.997 7.754038e-02 -0.531 31.8035)" class="st1" cx="16.9" cy="16.2" rx="2.8" ry="2"/>
				</g>
			</g>
		</g>
		<g>
			<g>
				<g>
					
						<ellipse transform="matrix(0.997 -7.754038e-02 7.754038e-02 0.997 -1.1736 2.1519)" class="st1" cx="27.1" cy="16.2" rx="2" ry="2.8"/>
				</g>
			</g>
		</g>
		<g>
			<g>
				<g>
					<path class="st1" d="M23.8,19.4c0,0.7-0.2,1.3-0.5,1.7c-0.7,1-1.9,1-2.6,0c-0.3-0.4-0.5-1-0.5-1.8"/>
				</g>
			</g>
			<g>
				<g>
					<path class="st1" d="M23.9,19.3l-1.7,0.3c0,0-0.1,0-0.1,0c-0.1,0-0.2,0-0.3,0l-1.7-0.3c-0.2,0-0.4-0.3-0.3-0.5
						c0.7-1.5,1.5-2.2,2.3-2.2c0.7,0,1.5,0.8,2.1,2.2C24.3,19,24.2,19.3,23.9,19.3z"/>
				</g>
			</g>
		</g>
		<g>
			<g>
				<path class="st1" d="M21.1,4.4C18.7,0.1,23-2,23.3,2.7c1.4-2.5,4.5-0.5,0.8,1.8"/>
			</g>
		</g>
	</g>
</g>
</svg>
