<?xml version="1.0" encoding="utf-8"?>
<!-- Generator: Adobe Illustrator 23.0.1, SVG Export Plug-In . SVG Version: 6.00 Build 0)  -->
<svg version="1.1" xmlns="http://www.w3.org/2000/svg" xmlns:xlink="http://www.w3.org/1999/xlink" x="0px" y="0px"
	 viewBox="0 0 54.32 16.77" style="enable-background:new 0 0 54.32 16.77;" xml:space="preserve">
<style type="text/css">
	.st0{fill:none;stroke:#73F0C0;stroke-width:3;stroke-linecap:round;stroke-miterlimit:10;}
</style>
<g id="Vrstva_1">
</g>
<g id="Vrstva_2">
	<path class="st0" d="M52.12,6.23c-4.16,0-4.16-4-8.33-4c-4.16,0-4.16,4-8.33,4c-4.17,0-4.17-4-8.33-4c-4.16,0-4.16,4-8.33,4
		c-4.17,0-4.17-4-8.33-4c-4.17,0-4.17,4-8.33,4"/>
	<path class="st0" d="M52.12,14.38c-4.16,0-4.16-4-8.33-4c-4.16,0-4.16,4-8.33,4c-4.17,0-4.17-4-8.33-4c-4.16,0-4.16,4-8.33,4
		c-4.17,0-4.17-4-8.33-4c-4.17,0-4.17,4-8.33,4"/>
</g>
</svg>
