<svg width="222" height="57" viewBox="0 0 222 57" fill="none" xmlns="http://www.w3.org/2000/svg">
<g clip-path="url(#clip0_941_7605)">
<path d="M125.064 48.2628C119.532 48.2628 115.745 43.9671 115.745 38.6529C115.745 33.3388 119.532 28.9702 125.064 28.9702C130.596 28.9702 134.382 33.3388 134.382 38.6529C134.382 43.9671 130.596 48.2628 125.064 48.2628ZM125.064 20.234C114.362 20.234 106.281 28.4599 106.281 38.6529C106.281 48.846 114.362 57 125.064 57C135.766 57 143.847 48.846 143.847 38.6529C143.847 28.4599 135.766 20.234 125.064 20.234ZM86.7741 20.234C82.8429 20.234 79.4938 21.617 76.7998 23.8008V20.962H67.6992V56.271H77.1643V33.3388C78.4743 31.5184 81.7505 28.9702 85.7546 28.9702C87.9384 28.9702 89.8316 29.6981 91.0688 30.9353C92.3788 32.2464 93.1807 34.0667 93.1807 37.5605V56.271H102.645V38.2885C102.645 32.2464 101.334 28.6786 99.0052 25.9127C96.0924 22.4178 91.652 20.234 86.7741 20.234ZM50.5934 24.5287V20.962H41.4928V56.271H50.9579V34.0667C52.1222 31.9548 55.3994 28.9702 59.5483 28.9702C60.9323 28.9702 62.3152 29.116 62.9702 29.3347L64.0616 20.5256C63.0421 20.3798 62.2423 20.234 60.8594 20.234C56.5637 20.234 52.7043 21.9086 50.5934 24.5287ZM26.2084 45.2782C24.9702 46.6612 23.078 47.5349 19.6561 47.5349H9.82752V33.7033H19.6561C23.078 33.7033 24.9702 34.5759 26.2084 35.9599C27.3727 37.1971 28.0288 38.7987 28.0288 40.6191C28.0288 42.4384 27.3727 44.04 26.2084 45.2782ZM9.82752 14.0462H16.7433C19.8019 14.0462 21.1848 14.773 22.2043 15.8665C23.078 16.8121 23.6602 18.1232 23.6602 19.5061C23.6602 20.8891 23.078 22.2002 22.2043 23.1457C21.1848 24.2381 19.8019 24.9661 16.7433 24.9661H9.82752V14.0462ZM30.2115 27.6601C31.8871 25.9127 33.4887 22.4907 33.4887 19.1416C33.4887 14.9917 31.5965 11.3521 28.7567 8.87673C26.2813 6.69296 23.0781 5.30896 17.3255 5.30896H0V56.271H19.8737C26.4271 56.271 30.3583 54.5246 33.1972 51.6848C36.037 48.9178 37.8573 44.9866 37.8573 40.6909C37.8573 35.0133 34.7259 29.9168 30.2115 27.6601ZM207.331 39.5975C204.254 43.4631 199.759 45.751 193.211 45.751H191.822V9.46511H193.211C199.759 9.46511 204.254 11.753 207.331 15.6176C209.855 18.773 211.354 23.0322 211.354 27.6081C211.354 32.1828 209.855 36.4421 207.331 39.5975ZM211.038 5.20587C206.541 1.89219 200.784 0 192.029 0H181.174V55.2161H192.029C200.784 55.2161 206.541 53.3229 211.038 50.0103C217.822 44.9616 222.003 36.7576 222.003 27.6081C222.003 18.4574 217.822 10.2534 211.038 5.20587ZM156.026 55.2161H166.282L170.176 28.0402H159.923L156.026 55.2161Z" fill="#231F20"/>
<path d="M159.138 8.09673C159.138 4.23113 162.136 1.31214 166 1.31214C169.865 1.31214 172.942 4.23113 172.942 8.09673C172.942 11.9613 169.865 14.8011 166 14.8011C162.136 14.8011 159.138 11.9613 159.138 8.09673Z" fill="#E42313"/>
</g>
<defs>
<clipPath id="clip0_941_7605">
<rect width="222" height="57" fill="white"/>
</clipPath>
</defs>
</svg>
